<?xml version="1.0" encoding="UTF-8" standalone="no"?><!DOCTYPE svg PUBLIC "-//W3C//DTD SVG 1.1//EN" "http://www.w3.org/Graphics/SVG/1.1/DTD/svg11.dtd"><svg width="100%" height="100%" viewBox="0 0 4267 4267" version="1.1" xmlns="http://www.w3.org/2000/svg" xmlns:xlink="http://www.w3.org/1999/xlink" xml:space="preserve" xmlns:serif="http://www.serif.com/" style="fill-rule:evenodd;clip-rule:evenodd;stroke-linejoin:round;stroke-miterlimit:2;"><g id="Layer2"><g id="Layer1"><ellipse cx="894.608" cy="1567.58" rx="345.082" ry="376.094" style="fill:#890f94;"/><ellipse cx="994.036" cy="1589.39" rx="247.049" ry="332.651" style="fill:#b639c1;"/><ellipse cx="1013.47" cy="1591.48" rx="182.854" ry="236.398" style="fill:#f16dcb;"/><ellipse cx="989.378" cy="1595.24" rx="158.588" ry="213.174" style="fill:#ff9500;"/></g><g id="Layer11" serif:id="Layer1"><path d="M2237.17,2214.07c159.083,30.593 260.764,198.294 226.924,374.262c-33.84,175.968 -190.469,293.995 -349.551,263.402c-159.083,-30.593 -260.764,-198.294 -226.924,-374.262c33.84,-175.969 190.469,-293.995 349.551,-263.402Z" style="fill:#890f94;"/><path d="M2309.58,2285.36c113.89,21.902 182.054,166.045 152.122,321.688c-29.931,155.642 -146.695,264.222 -260.585,242.32c-113.889,-21.902 -182.053,-166.045 -152.121,-321.687c29.931,-155.642 146.695,-264.222 260.584,-242.321Z" style="fill:#b639c1;"/><path d="M2309.78,2371.85c84.296,16.21 135.464,119.17 114.194,229.777c-21.271,110.606 -106.977,187.244 -191.273,171.033c-84.295,-16.21 -135.463,-119.17 -114.193,-229.777c21.271,-110.606 106.977,-187.244 191.272,-171.033Z" style="fill:#f16dcb;"/><path d="M2285.26,2390.86c73.109,14.06 116.892,106.451 97.711,206.192c-19.181,99.741 -94.109,169.303 -167.218,155.243c-73.109,-14.059 -116.892,-106.45 -97.711,-206.191c19.181,-99.741 94.109,-169.303 167.218,-155.244Z" style="fill:#ff9500;"/></g><path d="M947.369,1676.76c-217.104,-224.677 -451.887,-406.424 -364.67,-536.943c40.256,-60.244 80.284,-115.548 148.812,-168.285c68.529,-52.737 128.182,-82.912 244.571,-107.36c116.389,-24.447 580.866,-31.3 801.511,45.281c714.369,247.94 1710.11,1493.28 1710.11,1493.28c0,-0 208.37,130.374 179.235,406.39c-8.347,79.081 -56.709,215.104 -56.709,215.104c-0,0 12.689,-42.054 21.936,-104.489l-24.206,102.379c-0,0 -50.066,62.203 -110.494,75.181c-67.231,14.438 -68.134,77.036 -111.241,69.61c-82.352,-14.188 -289.137,-105.963 -382.875,-154.735c-66.947,-34.834 -134.724,-98.242 -198.929,-137.903c-139.444,-86.136 -260.279,-228.609 -425.469,-234.428c-35.44,-1.249 -360.741,-152.529 -444.281,-204.929c-164.55,-126.359 -733.021,-495.003 -987.299,-758.151Z" style="fill:#490a3c;"/><g id="Layer12" serif:id="Layer1"><ellipse cx="1777.66" cy="1651.17" rx="420.325" ry="447.285" style="fill:#890f94;"/><ellipse cx="1898.77" cy="1677.11" rx="300.917" ry="395.619" style="fill:#b639c1;"/><ellipse cx="1922.44" cy="1679.6" rx="222.724" ry="281.146" style="fill:#f16dcb;"/><ellipse cx="1893.09" cy="1684.07" rx="193.168" ry="253.526" style="fill:#ff9500;"/></g><g id="Layer13" serif:id="Layer1"><path d="M3327.59,2514.39c170.564,35.894 277.237,216.156 238.065,402.292c-39.172,186.137 -209.45,308.115 -380.014,272.22c-170.564,-35.895 -277.237,-216.156 -238.065,-402.292c39.172,-186.137 209.45,-308.115 380.014,-272.22Z" style="fill:#890f94;"/><path d="M3404.32,2591.65c122.109,25.697 193.117,180.224 158.47,344.86c-34.648,164.636 -161.914,277.437 -284.023,251.739c-122.109,-25.697 -193.117,-180.224 -158.47,-344.86c34.648,-164.636 161.914,-277.436 284.023,-251.739Z" style="fill:#b639c1;"/><path d="M3403.17,2683.5c90.379,19.02 143.766,129.449 119.144,246.447c-24.622,116.999 -117.988,196.545 -208.367,177.525c-90.38,-19.02 -143.766,-129.45 -119.144,-246.448c24.622,-116.998 117.988,-196.544 208.367,-177.524Z" style="fill:#f16dcb;"/><path d="M3376.5,2703.15c78.386,16.496 123.999,115.545 101.796,221.05c-22.203,105.504 -103.868,177.768 -182.254,161.272c-78.385,-16.496 -123.998,-115.545 -101.795,-221.05c22.203,-105.504 103.868,-177.768 182.253,-161.272Z" style="fill:#ff9500;"/></g><path d="M983.497,1255.21c172.763,15.86 427.014,50.545 525.98,26.505c115.309,-28.009 335.947,-102.773 425.883,-110.014c89.936,-7.242 220.258,119.381 279.299,219.598c245.53,416.768 2.168,617.179 61.07,698.587c58.902,81.407 478.478,463.425 579.476,530.56c100.999,67.136 181.013,90.971 248.275,56.136c67.262,-34.834 113.138,-89.978 170.816,-148.458c57.677,-58.479 192.593,-102.955 257.775,-41.126c186.797,177.192 78.156,537.232 78.156,537.232c-0,0 74.474,-129.735 82.821,-208.816c29.134,-276.016 -168.324,-423.609 -168.324,-423.609c-0,0 38.225,-525.844 -219.605,-814.451c-264.594,-296.177 -411.838,-414.33 -509.364,-455.022c-285.073,-118.944 -572.341,-45.707 -572.341,-45.707c-0,-0 -315.136,-261.892 -548.485,-271.751c-233.348,-9.859 -578.716,-11.295 -695.106,13.152c-116.389,24.448 -214.2,70.451 -282.729,123.188c-68.529,52.737 -145.798,162.413 -139.253,234.573c6.544,72.16 63.462,52.357 135.664,73.258c72.203,20.901 174.552,-4.434 289.992,6.165Zm2286.79,372.173c0,-0 -28.365,187.85 -24.464,245.767c5.844,86.769 181.131,279.224 203.197,281.732c33.938,3.858 17.142,-123.242 7.482,-177.195c-9.661,-53.954 -31.128,-144.65 -78.739,-215.585c-47.611,-70.936 -107.476,-134.719 -107.476,-134.719Zm-237.398,-263.23c108.848,92.368 152.304,143.531 165.888,177.457c13.512,33.745 8.69,214.748 -2.618,246.349c-7.49,20.935 -33.81,72.134 -83.087,16.239c-52.288,-59.309 -357.423,-335.55 -454.335,-411.519c-27.37,-21.456 -33.829,-45.027 -18.595,-67.465c15.235,-22.438 115.87,-86.364 160.526,-81.061c44.656,5.303 119.493,24.338 232.221,120Zm-767.177,-249.88c-0,0 130.853,-9.938 212.131,-4.898c87.352,5.418 248.993,28.776 248.993,28.776c-0,-0 -120.443,70.323 -150.401,87.593c-29.957,17.269 -123.124,32.934 -200.984,-17.734c-77.86,-50.669 -109.739,-93.737 -109.739,-93.737Z" style="fill:#fff;"/><path d="M696.213,941.894c26.995,23.822 119.353,100.228 198.569,105.094c93.934,5.771 204.278,-13.173 290.611,-32.118c86.333,-18.944 363.939,-97.452 554.86,-83.771c190.921,13.68 500.607,172.635 606.078,424.094c137.997,329.004 -25.457,637.177 -77.064,721.473c-31.06,-99.486 154.086,-324.561 -79.811,-721.581c-59.04,-100.217 -162.099,-175.976 -250.743,-180.527c-40.226,-2.066 -92.728,5.692 -158.341,29.96c-40.888,13.009 -84.207,28.286 -128.464,44.102c-52.696,18.832 -129.283,32.614 -224.148,40.621c-120.948,-0.381 -662.052,-19.298 -734.255,-40.199c-72.202,-20.901 -129.12,-1.098 -135.664,-73.258c-6.517,-71.851 70.063,-180.896 138.372,-233.89Z" style="fill:#ffddf8;"/><path d="M2857.59,2622.03c30.492,-47.771 155.606,-239.1 226.834,-276.577c81.533,-42.899 207.965,-69.697 295.452,-32.596c54.673,23.185 109.613,54.173 153.221,85.788c37.313,31.938 185.451,175.148 159.947,416.771c-8.347,79.081 -82.821,208.816 -82.821,208.816c-0,0 108.641,-360.04 -78.156,-537.232c-65.182,-61.829 -200.098,-17.353 -257.775,41.126c-57.678,58.48 -103.554,113.624 -170.816,148.458c-66.731,34.56 -146.013,11.372 -245.886,-54.554Z" style="fill:#ffddf8;"/><path d="M1570.61,826.093c39.499,42.235 20.866,123.941 -41.584,182.346c-62.45,58.406 -145.219,71.534 -184.718,29.3c-39.499,-42.234 -20.866,-123.941 41.584,-182.346c62.45,-58.405 145.219,-71.534 184.718,-29.3Z" style="fill:#ff9300;"/><clipPath id="_clip1"><path d="M1570.61,826.093c39.499,42.235 20.866,123.941 -41.584,182.346c-62.45,58.406 -145.219,71.534 -184.718,29.3c-39.499,-42.234 -20.866,-123.941 41.584,-182.346c62.45,-58.405 145.219,-71.534 184.718,-29.3Z"/></clipPath><g clip-path="url(#_clip1)"><path d="M1526.36,827.258c28.423,30.392 9.041,94.774 -43.256,143.684c-52.296,48.909 -117.831,63.943 -146.254,33.552c-28.423,-30.392 -9.041,-94.774 43.256,-143.683c52.296,-48.91 117.831,-63.944 146.254,-33.553Z" style="fill:#fffb00;fill-opacity:0.5;"/></g><path d="M805.353,866.256c33.953,36.304 17.936,106.537 -35.745,156.742c-53.681,50.204 -124.828,61.489 -158.781,25.185c-33.952,-36.304 -17.936,-106.538 35.745,-156.742c53.681,-50.204 124.829,-61.489 158.781,-25.185Z" style="fill:#ff9300;"/><clipPath id="_clip2"><path d="M805.353,866.256c33.953,36.304 17.936,106.537 -35.745,156.742c-53.681,50.204 -124.828,61.489 -158.781,25.185c-33.952,-36.304 -17.936,-106.538 35.745,-156.742c53.681,-50.204 124.829,-61.489 158.781,-25.185Z"/></clipPath><g clip-path="url(#_clip2)"><path d="M767.31,867.257c24.432,26.124 7.772,81.466 -37.182,123.508c-44.953,42.042 -101.285,54.965 -125.717,28.841c-24.432,-26.124 -7.771,-81.466 37.182,-123.508c44.953,-42.042 101.285,-54.965 125.717,-28.841Z" style="fill:#fffb00;fill-opacity:0.44;"/></g></g></svg>