{
    "asset" : {
        "copyright" : "ElectricAzimuth",
        "generator" : "Khronos glTF Blender I/O v3.4.50",
        "version" : "2.0"
    },
    "scene" : 0,
    "scenes" : [
        {
            "name" : "Scene",
            "nodes" : [
                0
            ]
        }
    ],
    "nodes" : [
        {
            "mesh" : 0,
            "name" : "webcar",
            "rotation" : [
                -0.7887136340141296,
                0.07196324318647385,
                -0.08375789225101471,
                0.6047617197036743
            ]
        }
    ],
    "materials" : [
        {
            "doubleSided" : true,
            "name" : "Car",
            "pbrMetallicRoughness" : {
                "baseColorTexture" : {
                    "index" : 0
                },
                "metallicFactor" : 0,
                "roughnessFactor" : 0.5
            }
        },
        {
            "doubleSided" : true,
            "name" : "3",
            "pbrMetallicRoughness" : {
                "baseColorFactor" : [
                    0.5882353186607361,
                    0.5882353186607361,
                    0.5882353186607361,
                    1
                ],
                "metallicFactor" : 0,
                "roughnessFactor" : 0.5
            }
        }
    ],
    "meshes" : [
        {
            "name" : "Rdoor.002",
            "primitives" : [
                {
                    "attributes" : {
                        "POSITION" : 0,
                        "TEXCOORD_0" : 1,
                        "TEXCOORD_1" : 2,
                        "NORMAL" : 3
                    },
                    "indices" : 4,
                    "material" : 0
                },
                {
                    "attributes" : {
                        "POSITION" : 5,
                        "TEXCOORD_0" : 6,
                        "TEXCOORD_1" : 7,
                        "NORMAL" : 8
                    },
                    "indices" : 9,
                    "material" : 1
                }
            ]
        }
    ],
    "textures" : [
        {
            "sampler" : 0,
            "source" : 0
        }
    ],
    "images" : [
        {
            "bufferView" : 5,
            "mimeType" : "image/png",
            "name" : "beetle-texture"
        }
    ],
    "accessors" : [
        {
            "bufferView" : 0,
            "componentType" : 5126,
            "count" : 4733,
            "max" : [
                1.2206575870513916,
                2.1616945266723633,
                1.1310052871704102
            ],
            "min" : [
                -1.2938841581344604,
                -2.236975908279419,
                -0.8133935332298279
            ],
            "type" : "VEC3"
        },
        {
            "bufferView" : 1,
            "componentType" : 5126,
            "count" : 4733,
            "type" : "VEC2"
        },
        {
            "bufferView" : 2,
            "componentType" : 5126,
            "count" : 4733,
            "type" : "VEC2"
        },
        {
            "bufferView" : 3,
            "componentType" : 5126,
            "count" : 4733,
            "type" : "VEC3"
        },
        {
            "bufferView" : 4,
            "componentType" : 5123,
            "count" : 16074,
            "type" : "SCALAR"
        },
        {
            "bufferView" : 6,
            "componentType" : 5126,
            "count" : 964,
            "max" : [
                0.45490026473999023,
                -0.9229891896247864,
                0.528129518032074
            ],
            "min" : [
                -0.5431764125823975,
                -1.0165820121765137,
                0.4330982565879822
            ],
            "type" : "VEC3"
        },
        {
            "bufferView" : 7,
            "componentType" : 5126,
            "count" : 964,
            "type" : "VEC2"
        },
        {
            "bufferView" : 8,
            "componentType" : 5126,
            "count" : 964,
            "type" : "VEC2"
        },
        {
            "bufferView" : 9,
            "componentType" : 5126,
            "count" : 964,
            "type" : "VEC3"
        },
        {
            "bufferView" : 10,
            "componentType" : 5123,
            "count" : 2028,
            "type" : "SCALAR"
        }
    ],
    "bufferViews" : [
        {
            "buffer" : 0,
            "byteLength" : 56796,
            "byteOffset" : 0,
            "target" : 34962
        },
        {
            "buffer" : 0,
            "byteLength" : 37864,
            "byteOffset" : 56796,
            "target" : 34962
        },
        {
            "buffer" : 0,
            "byteLength" : 37864,
            "byteOffset" : 94660,
            "target" : 34962
        },
        {
            "buffer" : 0,
            "byteLength" : 56796,
            "byteOffset" : 132524,
            "target" : 34962
        },
        {
            "buffer" : 0,
            "byteLength" : 32148,
            "byteOffset" : 189320,
            "target" : 34963
        },
        {
            "buffer" : 0,
            "byteLength" : 120532,
            "byteOffset" : 221468
        },
        {
            "buffer" : 0,
            "byteLength" : 11568,
            "byteOffset" : 342000,
            "target" : 34962
        },
        {
            "buffer" : 0,
            "byteLength" : 7712,
            "byteOffset" : 353568,
            "target" : 34962
        },
        {
            "buffer" : 0,
            "byteLength" : 7712,
            "byteOffset" : 361280,
            "target" : 34962
        },
        {
            "buffer" : 0,
            "byteLength" : 11568,
            "byteOffset" : 368992,
            "target" : 34962
        },
        {
            "buffer" : 0,
            "byteLength" : 4056,
            "byteOffset" : 380560,
            "target" : 34963
        }
    ],
    "samplers" : [
        {
            "magFilter" : 9729,
            "minFilter" : 9987
        }
    ],
    "buffers" : [
        {
            "byteLength" : 384616,
            "uri" : "data:application/octet-stream;base64,"
        }
    ]
}
